<?xml version="1.0" standalone="no"?>
<!DOCTYPE svg PUBLIC "-//W3C//DTD SVG 20010904//EN"
 "http://www.w3.org/TR/2001/REC-SVG-20010904/DTD/svg10.dtd">
<svg version="1.0" xmlns="http://www.w3.org/2000/svg"
 width="64.000000pt" height="64.000000pt" viewBox="0 0 64.000000 64.000000"
 preserveAspectRatio="xMidYMid meet">

<g transform="translate(0.000000,64.000000) scale(0.100000,-0.100000)"
fill="#000000" stroke="none">
<path d="M261 435 l-116 -115 116 -115 c95 -94 121 -115 145 -115 59 0 98 55
73 103 -6 12 -34 46 -62 75 l-51 52 51 53 c28 28 56 62 62 74 25 48 -14 103
-73 103 -24 0 -50 -21 -145 -115z m177 79 c37 -26 27 -53 -45 -126 l-67 -68
67 -68 c73 -74 82 -101 43 -127 -33 -22 -41 -16 -156 100 l-95 96 106 104 c58
58 110 105 115 105 5 0 20 -7 32 -16z"/>
</g>
</svg>
