<svg xmlns="http://www.w3.org/2000/svg" xmlns:xlink="http://www.w3.org/1999/xlink" viewBox="0,0,256,256" width="64px" height="64px"><g fill="#f10a0a" fill-rule="nonzero" stroke="none" stroke-width="1" stroke-linecap="butt" stroke-linejoin="miter" stroke-miterlimit="10" stroke-dasharray="" stroke-dashoffset="0" font-family="none" font-weight="none" font-size="none" text-anchor="none" style="mix-blend-mode: normal"><g transform="scale(8,8)"><path d="M16,2c-1.35042,0 -2.70089,0.23149 -3.99414,0.69531c-1.08281,0.3878 -1.8559,1.37613 -1.97461,2.54688c-0.03883,0.38297 -0.0408,0.84195 -0.01953,1.30273c-1.43898,0.24994 -2.87451,0.56861 -4.30078,0.99805c-0.35394,0.09278 -0.62896,0.37144 -0.71708,0.72657c-0.08812,0.35513 0.02474,0.73003 0.29425,0.9775c0.26951,0.24747 0.65266,0.32801 0.999,0.20999c0.23262,-0.07004 0.46631,-0.1186 0.69922,-0.18359c-1.13929,5.27115 -1.37076,11.55736 0.05078,16.67773c0.32542,1.1711 0.65861,2.02581 1.4043,2.60742c0.74568,0.58161 1.58396,0.73951 2.82031,1.04297c2.37478,0.58301 7.10178,0.58301 9.47656,0c1.23623,-0.30343 2.07449,-0.45949 2.82031,-1.04102c0.74582,-0.58153 1.07888,-1.43775 1.4043,-2.60937c1.42187,-5.12157 1.19056,-11.42491 0.05078,-16.69922c0.23277,0.06435 0.46673,0.11226 0.69922,0.18164c0.34518,0.11197 0.72394,0.02818 0.98967,-0.21896c0.26573,-0.24713 0.37675,-0.61882 0.29007,-0.97121c-0.08667,-0.35239 -0.35743,-0.63018 -0.70748,-0.72585c-1.42756,-0.42602 -2.86414,-0.74183 -4.30469,-0.98828c0.02732,-0.44662 0.02964,-0.89179 -0.00977,-1.28516c0,-0.00065 0,-0.0013 0,-0.00195c-0.1187,-1.17074 -0.89375,-2.15907 -1.97656,-2.54687c-1.29325,-0.46382 -2.64372,-0.69531 -3.99414,-0.69531zM16,3.99805c1.12129,0 2.24356,0.1939 3.32031,0.58008c0.34119,0.1222 0.61886,0.45993 0.66016,0.86719c0.01887,0.18973 0.01797,0.49603 0.00586,0.80273c-1.32871,-0.15057 -2.65915,-0.24773 -3.99023,-0.24609c-1.32881,0.00164 -2.65655,0.10257 -3.98242,0.25586c-0.00846,-0.32654 -0.00809,-0.65562 0.00781,-0.8125c0.04129,-0.40726 0.31897,-0.74499 0.66016,-0.86719c1.07675,-0.38618 2.19707,-0.58008 3.31836,-0.58008zM16,7.99805c2.28242,-0.00266 4.56315,0.24678 6.83594,0.7207c1.25811,5.16133 1.57572,11.74614 0.20117,16.69727c-0.29758,1.07138 -0.47881,1.38694 -0.70898,1.56641c-0.23018,0.17947 -0.82964,0.37417 -2.06641,0.67773c-1.62522,0.39899 -6.89822,0.39899 -8.52344,0c-1.23664,-0.30354 -1.83609,-0.49809 -2.06641,-0.67773c-0.23032,-0.17964 -0.41141,-0.49551 -0.70898,-1.56641c-1.37508,-4.95305 -1.05598,-11.51971 0.20313,-16.68164c2.27115,-0.47899 4.55276,-0.73367 6.83398,-0.73633zM12.0332,12.98633c-0.47554,-0.01436 -0.89537,0.30827 -1.00391,0.77148c-0.70506,2.81917 -0.70506,5.66521 0,8.48438c0.08645,0.34688 0.35142,0.62128 0.69507,0.71979c0.34365,0.09851 0.71375,0.00617 0.97085,-0.24222c0.2571,-0.2484 0.36212,-0.61511 0.27548,-0.96194c-0.62894,-2.51483 -0.62894,-5.00079 0,-7.51562c0.07821,-0.29512 0.01733,-0.6098 -0.16531,-0.85445c-0.18263,-0.24465 -0.46702,-0.39249 -0.77219,-0.40141zM15.98438,12.98633c-0.55152,0.00862 -0.99193,0.46214 -0.98437,1.01367v8c-0.0051,0.36064 0.18438,0.69608 0.49587,0.87789c0.3115,0.18181 0.69676,0.18181 1.00825,0c0.3115,-0.18181 0.50097,-0.51725 0.49587,-0.87789v-8c0.0037,-0.2703 -0.10218,-0.53059 -0.29351,-0.72155c-0.19133,-0.19097 -0.45182,-0.29634 -0.72212,-0.29212zM19.9375,12.98633c-0.29995,0.01748 -0.57614,0.16889 -0.7522,0.41235c-0.17607,0.24346 -0.23334,0.55318 -0.156,0.84351c0.62894,2.51483 0.62894,5.00079 0,7.51562c-0.08663,0.34684 0.01839,0.71354 0.27548,0.96194c0.2571,0.2484 0.6272,0.34074 0.97085,0.24222c0.34365,-0.09851 0.60862,-0.37291 0.69507,-0.71979c0.70506,-2.81917 0.70506,-5.6652 0,-8.48438c-0.10241,-0.43778 -0.48436,-0.75341 -0.93359,-0.77148c-0.03318,-0.00165 -0.06643,-0.00165 -0.09961,0z"></path></g></g></svg>