<?xml version="1.0" standalone="no"?>
<!DOCTYPE svg PUBLIC "-//W3C//DTD SVG 20010904//EN"
 "http://www.w3.org/TR/2001/REC-SVG-20010904/DTD/svg10.dtd">
<svg version="1.0" xmlns="http://www.w3.org/2000/svg"
 width="64.000000pt" height="64.000000pt" viewBox="0 0 64.000000 64.000000"
 preserveAspectRatio="xMidYMid meet">

<g transform="translate(0.000000,64.000000) scale(0.100000,-0.100000)"
fill="#000000" stroke="none">
<path d="M203 540 c-3 -13 -19 -24 -43 -30 -20 -5 -44 -18 -52 -27 -52 -60
-49 -322 4 -370 24 -22 126 -43 208 -43 82 0 184 21 208 43 53 48 56 310 4
370 -8 9 -32 22 -52 27 -24 6 -40 17 -43 30 -6 25 -25 26 -35 3 -6 -15 -20
-18 -82 -18 -62 0 -76 3 -82 18 -10 23 -29 22 -35 -3z m197 -75 c11 -29 30
-33 37 -6 4 15 11 17 36 12 26 -6 34 -14 44 -46 15 -51 15 -198 -1 -250 -11
-38 -14 -41 -66 -52 -70 -14 -190 -14 -260 0 -52 11 -55 14 -66 52 -16 52 -16
199 -1 250 10 32 18 40 44 46 25 5 32 3 36 -12 7 -27 26 -23 37 6 9 23 14 25
80 25 66 0 71 -2 80 -25z"/>
<path d="M264 369 c-10 -17 13 -36 27 -22 12 12 4 33 -11 33 -5 0 -12 -5 -16
-11z"/>
<path d="M344 369 c-10 -17 13 -36 27 -22 12 12 4 33 -11 33 -5 0 -12 -5 -16
-11z"/>
<path d="M424 369 c-10 -17 13 -36 27 -22 12 12 4 33 -11 33 -5 0 -12 -5 -16
-11z"/>
<path d="M184 289 c-10 -17 13 -36 27 -22 12 12 4 33 -11 33 -5 0 -12 -5 -16
-11z"/>
<path d="M264 289 c-10 -17 13 -36 27 -22 12 12 4 33 -11 33 -5 0 -12 -5 -16
-11z"/>
<path d="M344 289 c-10 -17 13 -36 27 -22 12 12 4 33 -11 33 -5 0 -12 -5 -16
-11z"/>
<path d="M424 289 c-10 -17 13 -36 27 -22 12 12 4 33 -11 33 -5 0 -12 -5 -16
-11z"/>
<path d="M184 209 c-10 -17 13 -36 27 -22 12 12 4 33 -11 33 -5 0 -12 -5 -16
-11z"/>
<path d="M264 209 c-10 -17 13 -36 27 -22 12 12 4 33 -11 33 -5 0 -12 -5 -16
-11z"/>
<path d="M344 209 c-10 -17 13 -36 27 -22 12 12 4 33 -11 33 -5 0 -12 -5 -16
-11z"/>
</g>
</svg>
