<svg xmlns="http://www.w3.org/2000/svg" xmlns:xlink="http://www.w3.org/1999/xlink" viewBox="0,0,256,256" width="32px" height="32px" fill-rule="nonzero"><g fill="none" fill-rule="nonzero" stroke="#ffffff" stroke-width="2" stroke-linecap="none" stroke-linejoin="none" stroke-miterlimit="10" stroke-dasharray="" stroke-dashoffset="0" font-family="none" font-weight="none" font-size="none" text-anchor="none" style="mix-blend-mode: normal"><g transform="scale(8,8)"><circle cx="16" cy="16" r="7" stroke-linecap="butt" stroke-linejoin="miter"></circle><path d="M6.362,20.043c0,0 -0.613,4.087 0.447,5.148c1.061,1.061 5.235,0.483 5.235,0.483c0,0 2.456,3.324 3.956,3.324c1.5,0 4.043,-3.36 4.043,-3.36c0,0 4.087,0.613 5.148,-0.447c1.061,-1.061 0.483,-5.235 0.483,-5.235c0,0 3.324,-2.456 3.324,-3.956c0,-1.5 -3.36,-4.043 -3.36,-4.043c0,0 0.613,-4.087 -0.447,-5.148c-1.061,-1.061 -5.235,-0.483 -5.235,-0.483c0,0 -2.456,-3.324 -3.956,-3.324c-1.5,0 -4.043,3.36 -4.043,3.36c0,0 -4.087,-0.614 -5.148,0.447c-1.061,1.061 -0.483,5.235 -0.483,5.235c0,0 -3.324,2.456 -3.324,3.956c0,1.5 3.36,4.043 3.36,4.043z" stroke-linecap="round" stroke-linejoin="round"></path></g></g></svg>